<svg width="44" height="44" viewBox="0 0 44 44" fill="none" xmlns="http://www.w3.org/2000/svg">
<path d="M22 0C23.1046 0 24 0.895467 24 1.99997V5.99999C24 7.10458 23.1046 7.99996 22 7.99996C20.8954 7.99996 20 7.1045 20 5.99999V1.99997C20 0.895467 20.8954 0 22 0ZM22 10.9043C15.8723 10.9043 10.9048 15.8718 10.9048 21.9996C10.9048 28.1272 15.8723 33.0948 22 33.0948C28.1278 33.0948 33.0952 28.1272 33.0952 21.9996C33.0952 15.8718 28.1278 10.9043 22 10.9043ZM9.31898 6.49012C8.53792 5.70906 7.27157 5.70906 6.49059 6.49012C5.70953 7.27118 5.70953 8.53753 6.49059 9.31859L9.34774 12.1757C10.1288 12.9568 11.3951 12.9568 12.1761 12.1757C12.9572 11.3947 12.9572 10.1283 12.1761 9.34727L9.31898 6.49012ZM0 22C0 20.8954 0.895467 20 1.99997 20H5.99999C7.10458 20 7.99996 20.8954 7.99996 22C7.99996 23.1046 7.10458 24 5.99999 24H1.99997C0.895467 24 0 23.1047 0 22ZM12.1761 34.6524C12.9572 33.8714 12.9572 32.6052 12.1761 31.824C11.3951 31.043 10.1287 31.043 9.34774 31.824L6.49059 34.6813C5.70953 35.4622 5.70953 36.7287 6.49059 37.5096C7.27165 38.2906 8.53792 38.2906 9.31898 37.5096L12.1761 34.6524ZM22 36C23.1046 36 24 36.8954 24 38V42C24 43.1046 23.1046 44 22 44C20.8954 44 20 43.1046 20 42V38C20 36.8954 20.8954 36 22 36ZM34.6524 31.824C33.8712 31.043 32.605 31.043 31.824 31.824C31.0428 32.6052 31.0428 33.8714 31.824 34.6524L34.681 37.5096C35.4622 38.2906 36.7284 38.2906 37.5094 37.5096C38.2906 36.7287 38.2906 35.4622 37.5094 34.6813L34.6524 31.824ZM36 22C36 20.8954 36.8954 20 38 20H42C43.1046 20 44 20.8954 44 22C44 23.1046 43.1046 24 42 24H38C36.8954 24 36 23.1047 36 22ZM37.5095 9.31851C38.2907 8.53745 38.2907 7.2711 37.5095 6.49004C36.7285 5.70898 35.4623 5.70898 34.6811 6.49004L31.8241 9.34719C31.0429 10.1283 31.0429 11.3946 31.8241 12.1757C32.6051 12.9567 33.8713 12.9567 34.6525 12.1757L37.5095 9.31851Z" fill="#04794C"/>
</svg>
