<svg width="44" height="44" viewBox="0 0 44 44" fill="none" xmlns="http://www.w3.org/2000/svg">
<path fill-rule="evenodd" clip-rule="evenodd" d="M20.977 3.12579C21.1408 2.76315 21.2041 2.36278 21.1603 1.96696C21.1165 1.57115 20.9671 1.19457 20.7281 0.876993C20.489 0.559419 20.169 0.312637 19.802 0.162705C19.435 0.0127729 19.0345 -0.0347442 18.6428 0.025171C8.085 1.64846 0 10.8176 0 21.8843C0 34.0988 9.8494 44 22 44C34.1506 44 44 34.0988 44 21.8843C44 21.6786 43.9978 21.4708 43.9912 21.2651C43.9802 20.8663 43.8622 20.478 43.6495 20.1412C43.4369 19.8044 43.1376 19.5317 42.7834 19.352C42.4292 19.1723 42.0332 19.0922 41.6374 19.1202C41.2416 19.1483 40.8606 19.2834 40.535 19.5113C38.1614 21.173 35.3106 22.005 32.4208 21.8793C29.5311 21.7537 26.7624 20.6773 24.5404 18.8158C22.3184 16.9543 20.7662 14.4106 20.1224 11.5758C19.4786 8.74111 19.7789 5.77228 20.977 3.12579Z" fill="#04794C"/>
</svg>
