<svg width="488" height="147" viewBox="0 0 488 147" fill="none" xmlns="http://www.w3.org/2000/svg">
<path d="M476.987 96.6497C476.637 96.5134 476.278 96.416 475.915 96.3584C472.493 96.1648 469.07 96.0495 465.654 95.7846C464.844 95.723 463.796 95.5118 463.308 94.8086C462.123 93.1109 460.73 92.8328 459.154 92.7166C456.996 92.56 456.649 92.1358 455.447 89.0018C458.146 86.9214 461.141 88.3506 463.882 87.6052C463.544 87.2417 463.147 86.8131 462.388 85.9999C463.807 85.302 464.867 84.4158 465.97 84.3076C469.018 84.0118 472.085 84.0435 475.144 83.9397C475.995 83.961 476.847 83.9128 477.694 83.7953C479.875 83.3553 481.87 84.1993 484.121 85.0494L482.922 87.0798H488C487.256 83.4204 487.056 83.1846 484.512 83.0649C482.382 82.9646 480.251 82.9162 478.127 82.7463C477.355 82.7352 476.593 82.5101 475.89 82.0854C473.35 80.2751 470.65 80.217 467.899 80.4898C467.475 80.532 466.958 80.87 466.648 80.6535C464.205 78.9444 461.58 80.1598 459.085 79.6669C457.308 79.3149 455.597 78.309 453.859 77.5961C453.864 77.3321 453.869 77.0601 453.874 76.7917C454.791 76.5154 455.707 76.2188 456.627 75.9636C460.182 74.9797 463.628 73.429 467.404 73.8805C470.962 74.3073 474.573 73.9685 478.655 73.9685C477.919 73.4404 477.601 73.047 477.257 72.996C473.689 72.4574 470.119 71.9223 466.542 71.5104C465.43 71.484 464.318 71.5513 463.212 71.7119C461.94 71.892 460.659 71.9376 459.381 71.8484C454.282 71.0493 449.201 70.0715 444.106 69.2407C442.501 68.9767 440.87 69.0128 439.255 68.8306C437.638 68.7114 436.027 68.4598 434.433 68.0773C433.223 67.7393 432.265 66.7642 432.438 64.3563C437.83 64.0782 443.15 64.7083 448.847 65.4001C447.531 63.0529 445.814 63.0177 444.377 62.7651C437.005 61.4767 429.609 60.4171 422.223 59.2721C421.882 59.269 421.544 59.1926 421.221 59.0459C420.945 58.8699 420.55 58.4414 420.563 58.1571C420.571 57.8891 420.623 57.6267 420.715 57.3885C420.807 57.1502 420.937 56.9418 421.096 56.778C421.64 56.4921 422.222 56.3562 422.807 56.3784C425.194 56.3397 427.583 56.3626 430.15 56.3626L428.885 52.8036C430.976 51.3224 433.051 52.2201 435.032 52.0432C436.967 52.0174 438.9 51.862 440.824 51.5777C436.166 49.9469 431.21 51.4615 426.655 49.1178C426.401 47.209 427.033 46.6079 428.18 46.5833C430.065 46.5445 431.949 46.4442 433.832 46.4477C438.8 46.46 443.77 46.5701 448.736 46.5155C450.096 46.3738 451.449 46.1314 452.788 45.7894C454.639 45.3708 456.507 45.1063 458.383 44.9974C464.883 45.0264 471.382 45.2614 477.881 45.3547C478.91 45.3439 479.931 45.0968 480.898 44.6242C477.713 43.0462 474.34 43.6561 471.084 43.0242C467.755 42.3774 464.386 42.1107 461.033 41.6777C461.017 41.3724 461.001 41.0617 460.984 40.7598C461.555 40.5318 462.142 40.3785 462.736 40.3022C467.004 40.2872 471.272 40.3638 475.541 40.3391C477.648 40.3277 479.796 40.7677 482.305 39.3869L467.335 38.0307C467.617 34.7832 466.068 33.9701 464.11 33.6304C461.144 33.1164 458.182 32.549 455.225 31.9283C453.953 31.7008 452.698 31.3281 451.473 30.8141C450.716 30.3595 450.081 29.6058 449.653 28.6544C452.102 27.4945 454.531 27.9662 457.139 27.924C456.622 26.2272 455.616 26.2949 454.799 26.1832C451.988 25.8003 449.166 25.5724 446.355 25.2019C445.25 25.0499 444.158 24.7708 443.089 24.3676C442.914 24.2422 442.766 24.0592 442.658 23.8357C442.55 23.6123 442.487 23.3559 442.474 23.0906C442.527 22.8325 442.626 22.5958 442.764 22.4018C442.902 22.2078 443.074 22.0626 443.264 21.9791C444.266 21.7494 445.296 21.7362 446.787 21.5954C443.707 19.624 440.69 19.9936 437.902 19.0484C435.174 18.1252 432.462 17.1264 429.768 15.8397C431.754 14.7211 433.72 15.3275 435.726 15.6637C437.871 16.0172 440.043 15.9743 442.18 15.5361C441.82 15.2826 441.468 14.8364 441.097 14.8074C438.12 14.5653 435.112 14.6815 432.164 14.1596C423.765 12.6706 415.284 13.2153 406.872 12.0017C390.852 9.688 374.747 9.16787 358.662 8.24996C355.585 8.07394 352.498 8.22354 349.417 8.1461C348.318 8.11882 347.222 7.86624 346.126 7.70606C345.717 7.59533 345.302 7.52677 344.885 7.501C342.508 7.66118 340.133 8.01497 337.756 8.02905C328.081 8.09242 318.399 8.02465 308.721 8.07482C304.541 8.09594 300.362 8.28516 296.18 8.38989C295.837 8.42273 295.493 8.39073 295.156 8.29484C290.019 6.40004 284.778 7.5723 279.59 7.45261C266.058 7.13842 252.523 7.10058 238.988 6.96417C229.736 6.87147 220.483 6.78786 211.23 6.71335C205.073 6.65086 198.917 6.53734 192.759 6.48718C179.917 6.38509 167.074 6.30118 154.232 6.23547C148.493 6.20643 142.753 6.29004 137.015 6.23987C135.672 6.14571 134.334 5.96123 133.005 5.68717C132.676 3.97191 133.145 3.10858 134.079 2.80319C134.916 2.57394 135.768 2.45863 136.622 2.45907C142.271 2.19064 147.921 1.95481 153.572 1.68814C153.874 1.67318 154.173 1.48571 154.475 0.714768C151.751 0.463067 149.028 0.00368603 146.304 0.000165744C139.287 -0.00599476 132.268 0.176165 125.249 0.309056C120.288 0.404984 115.323 0.411143 110.369 0.714768C102.167 1.21817 93.961 1.75149 85.7759 2.6034C78.8651 3.32066 71.9898 4.55718 65.0921 5.48214C54.5324 6.89818 43.9647 8.22795 33.405 9.6299C31.3646 9.89921 29.3289 10.304 27.2978 10.708C26.7461 10.8762 26.2056 11.1037 25.6813 11.3883C25.6813 11.6224 25.6754 11.8574 25.6728 12.0923C26.6012 12.259 27.5372 12.3379 28.4739 12.3282C32.5645 11.9243 36.6498 11.4244 40.7377 10.9544C40.9028 10.8954 41.0715 10.856 41.2419 10.8365C43.8232 11.1771 46.4026 11.5344 48.9175 11.8803C47.7025 13.1511 44.6598 13.856 39.0021 14.4219C35.4177 14.7739 31.853 15.4446 28.2739 15.9365C24.8513 16.4065 21.4242 16.8298 17.9997 17.2733C17.9945 17.5374 17.9886 17.8014 17.984 18.0654C20.0138 18.2968 22.0429 18.5257 24.4499 18.7994C22.5642 21.9738 20.0111 19.7111 17.8931 21.2275C20.0789 22.4358 22.3634 21.0964 24.3373 22.9806C22.6919 24.4063 21.0603 23.7991 19.4971 23.9249C17.8744 24.0471 16.2578 24.2857 14.6542 24.6395C13.1543 24.9792 11.5345 23.6099 10.1201 25.3216C16.9651 25.3278 23.7331 26.5467 30.5571 26.713L30.6229 27.5719C30.2766 27.956 29.8825 28.2557 29.4586 28.4573C27.6236 28.826 25.7787 29.1446 23.9299 29.355C20.1948 29.78 16.5268 30.9276 12.7271 30.7886C10.0898 30.6927 7.44001 31.3862 4.79085 31.6018C3.82511 31.6348 2.88089 31.9903 2.04413 32.6358C1.20738 33.2814 0.504669 34.1966 0 35.2981C0.487173 35.6941 1.01581 35.9907 1.56844 36.1782C4.97712 36.5302 8.38975 36.7863 11.8011 37.0802C14.2758 37.2941 16.6887 37.478 18.8007 39.7733C19.6169 40.6613 21.0445 40.692 22.2121 40.8293C28.9373 41.6067 35.6658 42.3346 42.3976 43.0128C47.1707 43.4977 51.9471 43.9536 56.7254 44.303C58.1655 44.4077 59.6214 44.0328 61.0694 44.0152C62.6872 43.9941 64.3102 44.0574 65.9234 44.2255C66.9107 44.3267 67.7005 44.9349 67.7834 47.025L55.9665 47.9694C57.1855 50.4406 58.9803 51.3568 61.0305 51.6718C65.2494 52.3187 69.4315 53.4892 73.7168 53.2656C74.4333 53.3043 75.1461 53.4221 75.848 53.6177C75.8585 53.8421 75.8697 54.0665 75.8802 54.2918C75.5031 54.5942 75.0863 54.7976 74.6521 54.8911C72.0148 54.6826 69.3814 54.3693 66.7461 54.1061C61.7999 53.6115 56.8531 53.1002 51.9036 52.6496C49.3473 52.4164 46.7843 52.1365 44.226 52.1708C41.6677 52.2052 39.1028 52.4762 36.8426 54.4872C36.2902 54.7747 35.703 54.9238 35.1103 54.9272C30.149 56.1235 25.1886 57.3278 20.229 58.5399C20.0236 58.5901 19.8565 58.9298 19.6222 59.1921C20.4877 60.4831 21.3532 59.6558 22.2404 59.471C25.3377 58.8277 28.4542 57.8649 31.5463 59.486C32.2666 59.8733 32.9113 60.4753 33.4313 61.2461C27.386 61.2937 21.3705 62.3834 15.5336 64.4883C16.0521 64.724 16.5832 64.9067 17.1224 65.0349C17.9734 65.1563 18.8409 65.0604 19.6893 65.2065C20.7253 65.3825 22.1482 64.7876 22.4984 66.7712C22.8419 68.7074 21.2742 68.6071 20.5693 69.4343C20.5086 69.541 20.4585 69.6579 20.4205 69.782C20.9207 70.2898 21.4288 70.8055 22.2957 71.6882C21.0662 72.0983 20.2224 72.3817 19.1318 72.7443C19.403 73.3709 19.5432 74.1858 19.8466 74.317C21.0635 74.8353 22.3345 75.1284 23.5804 75.5306C26.2908 76.4107 28.9985 77.2995 32.0222 78.287C31.6744 78.974 31.1876 79.5144 30.6185 79.845C30.0495 80.1756 29.4218 80.2826 28.8089 80.1536C27.282 79.784 25.4871 80.4335 24.2406 78.5131C24.1043 78.3046 23.6772 78.3723 23.3922 78.4084C23.0025 78.4551 22.5431 78.8317 22.2436 78.6601C18.4815 76.5057 14.6747 77.7035 10.9066 78.4498C9.75085 78.6795 8.69317 79.8033 7.32943 80.6852C10.0582 82.242 14.7898 83.5164 16.8822 83.4134C18.3302 83.3421 19.6623 83.8693 21.4986 85.0855C18.4427 86.3009 15.9298 84.7573 13.1918 85.2114C14.3765 87.3905 15.7165 88.9183 17.5081 89.2932C20.1171 89.8379 21.2136 92.9331 23.2342 94.4266C23.1921 94.681 23.1513 94.9344 23.1085 95.1888C21.7263 95.2838 20.2909 95.1008 18.9817 95.5566C17.7016 96.0046 16.5505 97.1117 15.2789 97.9733L16.5175 102.668C14.4482 103.993 13.7085 100.158 11.8169 100.747C11.3923 101.575 10.9244 102.49 10.492 103.334C11.4601 108.305 15.1242 109.356 17.8767 111.753C17.8016 111.96 17.7253 112.165 17.6496 112.37C17.2787 112.452 16.9034 112.494 16.5274 112.495C16.0728 112.412 15.6226 112.29 15.1795 112.13C14.7846 113.58 14.4265 114.912 14.0165 116.425C15.7067 117.331 17.3607 118.206 19.0048 119.108C20.512 119.936 22.4595 118.38 23.8193 120.669C23.1052 122.331 21.883 122.045 20.8575 122.21C19.8324 122.22 18.8134 122.421 17.8299 122.808C20.3817 124.245 22.9881 125.536 25.4746 127.149C30.9717 130.724 37.0065 131.411 42.8504 133.022C50.817 135.219 58.8217 137.164 66.8646 138.858C75.0661 140.602 83.2926 142.237 91.5501 143.382C100.052 144.561 108.603 145.073 117.132 145.913C118.783 146.077 120.261 145.052 122.025 145.317C124.777 145.73 127.623 144.949 130.431 144.834C131.964 144.801 133.497 144.916 135.018 145.178C138.243 145.674 141.463 146.284 144.687 146.833C145.109 146.904 145.642 147.134 145.949 146.891C148.485 144.895 151.149 146.319 153.75 146.275C154.721 146.261 155.692 146.275 156.663 146.275C156.69 146.045 156.718 145.811 156.745 145.581C155.768 144.957 154.791 144.332 153.814 143.705C153.842 143.476 153.869 143.248 153.896 143.019C155.015 142.925 156.143 142.876 157.26 142.728C158.361 142.581 159.451 142.189 160.55 142.15C164.222 142.019 167.898 141.87 171.568 141.968C176.607 142.102 181.638 142.546 186.679 142.681C190.161 142.774 193.649 142.571 197.134 142.505C197.475 142.484 197.818 142.49 198.158 142.524C205.726 143.524 213.341 143.714 220.931 143.09C223.792 142.888 226.673 143.282 229.545 143.313C236.197 143.384 242.848 143.401 249.499 143.433C249.842 143.46 250.186 143.448 250.527 143.398C261.409 141.091 272.398 141.837 283.342 141.423C300.722 140.767 318.107 140.329 335.49 139.855C340.106 139.729 344.725 139.799 349.341 139.803C351.177 139.803 351.504 139.304 351.48 136.889C351.472 136.231 351.936 135.569 352.24 134.751C351.932 134.715 351.393 134.65 350.858 134.589C348.478 134.319 346.098 134.061 343.72 133.766C343.376 133.758 343.039 133.628 342.746 133.388C340.408 130.939 337.815 131.526 335.211 132.172C334.139 132.436 331.738 131.532 330.455 130.676C329.848 130.339 329.166 130.328 328.553 130.646C326.761 131.686 324.782 132.005 322.856 131.564C322.623 130.739 322.36 129.814 322.001 128.544C323.137 128.246 324.286 128.035 325.441 127.911C337.51 127.573 349.581 127.349 361.649 126.943C365.493 126.814 369.325 126.063 373.167 125.887C379.239 125.612 385.32 125.662 391.393 125.415C394.465 125.29 397.526 124.716 400.598 124.524C407.183 124.114 413.772 123.77 420.364 123.495C427.896 123.178 435.431 122.956 442.966 122.717C444.655 122.664 446.345 122.709 447.94 122.709C448.477 121.241 448.214 120.42 447.231 120.187C446.564 120.031 445.862 120.151 445.186 120.035C444.728 119.931 444.307 119.637 443.983 119.193C446.771 117.811 449.742 119.119 452.524 118.288C452.527 118.013 452.532 117.74 452.536 117.465C451.479 117.278 450.426 117.012 449.365 116.915C445.881 116.596 442.393 116.347 438.909 116.041C438.31 116.03 437.715 115.892 437.148 115.632C434.209 114.023 431.111 113.936 428.038 114.093C422.384 114.382 416.794 113.503 411.184 112.908C409.054 112.682 406.902 112.852 404.763 112.732C403.976 112.616 403.197 112.42 402.433 112.146C402.436 111.899 402.44 111.652 402.443 111.407C402.851 111.143 403.285 110.955 403.732 110.85C411.589 110.471 419.447 110.141 427.302 109.774C428.413 109.722 429.524 109.399 430.63 109.446C431.313 109.518 431.998 109.332 432.606 108.908C433.215 108.485 433.722 107.841 434.069 107.05C434.266 106.555 434.573 106.153 434.948 105.899C435.322 105.645 435.746 105.552 436.162 105.632C437.786 105.648 439.414 105.583 441.038 105.497C442.272 105.431 443.588 105.825 444.466 103.968C444.696 103.482 445.566 103.462 446.155 103.364C448.188 103.026 450.236 102.404 452.258 102.536C454.749 102.701 456.523 100.87 458.374 99.3304C459.227 98.6167 460.213 98.2413 461.219 98.2479C466.18 98.0068 471.139 97.6802 476.098 97.3749C476.387 97.3318 476.675 97.2615 476.957 97.1645C476.976 97.0096 476.981 96.8283 476.987 96.6497ZM114.039 89.0617C113.687 89.1376 113.331 89.1759 112.975 89.1761C108.973 88.7581 104.972 88.2696 100.966 87.9088C99.7029 87.7962 98.32 87.6131 97.1761 88.1579C95.5346 88.9385 94.2736 88.2776 92.7387 87.5066C94.2907 85.9357 97.1656 85.5511 103.796 85.7465C107.506 85.8565 111.219 85.8741 115.166 85.9374C114.689 87.2549 114.372 88.1385 114.039 89.0617ZM120.194 84.1738C122.855 82.1496 129.306 82.0616 131.233 84.1527C128.079 85.1709 125.091 86.2754 122.056 87.0507C120.758 87.3816 119.99 86.2701 120.194 84.1738ZM5.62344 35.1186C8.3134 33.9217 13.2583 34.1742 14.5812 35.4979C11.5957 35.6563 8.60695 36.2565 5.62344 35.1186Z" fill="#15844C" fill-opacity="0.13"/>
</svg>
